<svg width="25" height="24" viewBox="0 0 25 24" fill="none" xmlns="http://www.w3.org/2000/svg">
<g id="heroicons-outline/envelope">
<path id="Vector" d="M22.7139 6.75006V17.2501C22.7139 18.4927 21.7065 19.5001 20.4639 19.5001H5.46387C4.22123 19.5001 3.21387 18.4927 3.21387 17.2501V6.75006M22.7139 6.75006C22.7139 5.50742 21.7065 4.50006 20.4639 4.50006H5.46387C4.22123 4.50006 3.21387 5.50742 3.21387 6.75006M22.7139 6.75006V6.99277C22.7139 7.77411 22.3085 8.49951 21.6431 8.909L14.1431 13.5244C13.4199 13.9694 12.5078 13.9694 11.7846 13.5244L4.28465 8.909C3.61922 8.49951 3.21387 7.77411 3.21387 6.99277V6.75006" stroke="white" stroke-width="1.1343" stroke-linecap="round" stroke-linejoin="round"/>
</g>
</svg>
