<svg width="25" height="24" viewBox="0 0 25 24" fill="none" xmlns="http://www.w3.org/2000/svg">
<g id="custom / noti-outline">
<path id="Vector" d="M18.9279 7.99994C18.9279 6.40864 18.2957 4.88252 17.1705 3.7573C16.0453 2.63208 14.5192 1.99994 12.9279 1.99994C11.3366 1.99994 9.81043 2.63208 8.68522 3.7573C7.56 4.88252 6.92786 6.40864 6.92786 7.99994C6.92786 14.9999 3.92786 16.9999 3.92786 16.9999H21.9279C21.9279 16.9999 18.9279 14.9999 18.9279 7.99994Z" stroke="#FAFAFA" stroke-width="1.1343" stroke-linecap="round" stroke-linejoin="round"/>
<path id="Vector_2" d="M14.6579 20.9999C14.4821 21.303 14.2297 21.5546 13.9261 21.7295C13.6225 21.9043 13.2783 21.9964 12.9279 21.9964C12.5775 21.9964 12.2333 21.9043 11.9296 21.7295C11.626 21.5546 11.3737 21.303 11.1979 20.9999" stroke="#FAFAFA" stroke-width="1.1343" stroke-linecap="round" stroke-linejoin="round"/>
</g>
</svg>
