<svg width="24" height="24" viewBox="0 0 24 24" fill="none" xmlns="http://www.w3.org/2000/svg">
<g id="custom / wallet-fill">
<g id="Vector">
<mask id="path-1-inside-1_302_98" fill="white">
<path d="M2.05884 4.86047C2.12415 5.19276 2.11948 5.5245 2.05884 5.85679V4.86047Z"/>
</mask>
<path d="M2.05884 4.86047C2.12415 5.19276 2.11948 5.5245 2.05884 5.85679V4.86047Z" fill="#111111"/>
<path d="M2.05884 4.86047L2.52366 4.76912L1.58512 4.86047H2.05884ZM2.05884 5.85679H1.58512L2.52486 5.94183L2.05884 5.85679ZM1.59401 4.95183C1.64664 5.2196 1.64403 5.49112 1.59282 5.77174L2.52486 5.94183C2.59493 5.55787 2.60165 5.16593 2.52366 4.76912L1.59401 4.95183ZM2.53255 5.85679V4.86047H1.58512V5.85679H2.53255Z" fill="#FAFAFA" mask="url(#path-1-inside-1_302_98)"/>
</g>
<path id="Vector_2" d="M21.9309 8.50073C21.9309 8.23833 21.9221 7.96817 21.8065 7.7252C21.4971 7.07227 20.9953 6.70337 20.3231 6.59464C19.9898 6.54083 19.9566 6.50366 19.9556 6.14863C19.9535 5.47795 19.9644 4.80671 19.952 4.13603C19.9395 3.4709 19.6975 2.91505 19.203 2.49955C18.8205 2.17891 18.3789 2.05908 17.8984 2.05908C13.5824 2.06075 9.26647 2.06019 4.94998 2.05908C4.78101 2.05908 4.61411 2.07295 4.44877 2.10235C3.48834 2.27543 2.77566 2.81575 2.29985 3.7294C2.13399 4.04838 2.11844 4.39509 2.05884 4.73626V4.86052C2.09045 5.19281 2.09045 5.5251 2.05884 5.85683V19.306C2.0889 19.3542 2.08838 19.413 2.09045 19.4652C2.11637 20.0898 2.40973 20.5791 2.80002 21.0035C3.38675 21.6409 4.1129 21.9404 4.94739 21.9404C9.92887 21.941 14.9109 21.9404 19.8924 21.9404C19.9763 21.9404 20.0603 21.9404 20.1443 21.9382C20.9565 21.9088 21.9475 21.2548 21.9407 19.9744C21.9205 16.15 21.935 12.3257 21.9309 8.50073ZM4.42182 3.57519C4.60323 3.5186 4.7893 3.50141 4.97745 3.50141C9.28772 3.50141 13.5985 3.50141 17.9088 3.50141C18.3924 3.50141 18.6059 3.73329 18.6064 4.25031C18.6075 4.99033 18.6013 5.73091 18.6106 6.47093C18.6127 6.64623 18.5624 6.68783 18.4043 6.68728C16.1424 6.68229 13.8805 6.68395 11.6186 6.68395C9.38879 6.68395 7.15954 6.68506 4.92976 6.68395C4.09995 6.68395 3.45154 6.11035 3.32974 5.27491C3.22659 4.56762 3.72365 3.7932 4.42182 3.57519ZM15.9387 16.1955C15.1177 16.1811 14.4636 15.5509 14.3433 14.6844C14.2023 13.6681 14.9119 12.6984 15.8765 12.6785C17.4319 12.6463 18.9884 12.6685 20.5444 12.6641C20.6532 12.6641 20.6709 12.7129 20.6709 12.8127C20.6688 13.8911 20.6662 14.969 20.6729 16.0474C20.674 16.2144 20.5905 16.2011 20.4905 16.2011C19.7156 16.2005 18.9407 16.2011 18.1659 16.2011V16.1989C17.4231 16.1989 16.6809 16.2088 15.9387 16.1955ZM20.4568 11.3388C18.9641 11.3321 17.4713 11.3316 15.9781 11.336C14.3371 11.3404 13.047 12.7561 13.0745 14.5136C13.0999 16.1118 14.3169 17.482 15.8133 17.5219C17.305 17.5613 18.7987 17.5336 20.2915 17.5358C20.3692 17.5358 20.447 17.5408 20.5242 17.5347C20.6299 17.5263 20.6719 17.5646 20.6714 17.6861C20.6667 18.4123 20.6729 19.139 20.6672 19.8651C20.6646 20.2202 20.4464 20.4609 20.1168 20.4959C20.0593 20.502 20.0007 20.5003 19.9426 20.5003C14.9663 20.5003 9.99055 20.5003 5.01425 20.5003C4.21968 20.5003 3.64124 20.1015 3.4023 19.3953C3.33803 19.205 3.30538 19.0081 3.30538 18.8061C3.30486 15.0916 3.30486 11.3771 3.30538 7.66251C3.30538 7.62867 3.30849 7.59483 3.31263 7.52161C3.70707 7.77956 4.09995 7.94709 4.53014 7.99425C4.69704 8.01255 4.86549 8.0181 5.03291 8.0181C10.0025 8.01921 14.9726 8.01921 19.9421 8.01921C20.4677 8.01921 20.6698 8.23445 20.6698 8.79363C20.6698 9.5686 20.6631 10.343 20.6745 11.118C20.6776 11.3094 20.6201 11.3421 20.4568 11.341V11.3388Z" fill="#FAFAFA"/>
<path id="Vector_3" d="M17.1058 14.4342C17.1058 14.9673 16.7061 15.3988 16.2101 15.4027C15.7079 15.4061 15.2943 14.9623 15.3005 14.4264C15.3067 13.8949 15.7141 13.4639 16.2075 13.4672C16.7036 13.4706 17.1063 13.9038 17.1063 14.4342H17.1058Z" fill="#FAFAFA"/>
</g>
</svg>
