<svg width="178" height="53" viewBox="0 0 178 53" fill="none" xmlns="http://www.w3.org/2000/svg">
<g filter="url(#filter0_d_12_4171)">
<path d="M4 30.1289V1.3147H9.18582V25.0161H23.6112V30.1289H4Z" fill="white"/>
<path d="M26.0945 3.21375C26.0945 1.38776 27.4822 0 29.2717 0C31.0612 0 32.3759 1.35124 32.3759 3.21375C32.3759 5.07626 31.0612 6.39098 29.2717 6.39098C27.4457 6.4275 26.0945 5.11278 26.0945 3.21375ZM31.682 30.1289H26.7153V8.98389H31.682V30.1289Z" fill="white"/>
<path d="M36.6123 30.1289V8.98389H41.4694V11.942C42.565 9.78733 44.9754 8.4361 47.97 8.4361C50.1977 8.4361 52.1333 9.20301 53.7036 10.7368C55.274 12.2707 56.0409 14.3888 56.0409 17.2374V30.1289H51.0742V18.6251C51.0742 15.0827 49.2847 13.0376 46.5457 13.0376C43.6241 13.0376 41.5425 15.3749 41.5425 18.6982V30.1289H36.6123Z" fill="white"/>
<path d="M74.3373 30.1289L67.2524 20.8894L65.7551 22.2771V30.1289H60.825V0.511292H65.7551V16.507L73.6799 8.94738H79.9614L70.6853 17.6756L80.4726 30.1289H74.3373Z" fill="white"/>
<path d="M85.3662 26.4404C82.5907 23.6649 81.2395 20.1225 81.2395 15.8131C81.2395 11.4672 82.6273 7.85178 85.4393 5.07627C88.2878 2.22772 91.7207 0.839966 95.7379 0.839966C100.778 0.839966 105.343 3.25028 107.826 6.86574L104.284 10.3351C102.019 7.41354 99.2438 5.95275 95.957 5.95275C93.3276 5.95275 91.0999 6.90226 89.2739 8.76478C87.4844 10.6273 86.5714 12.9646 86.5714 15.8131C86.5714 18.5886 87.4479 20.8894 89.2374 22.7154C91.0268 24.5414 93.2545 25.4544 95.9205 25.4544C99.3899 25.4544 102.202 24.0301 104.393 21.072L108.009 24.4318C105.379 28.0473 100.851 30.5671 95.6649 30.5671C91.5746 30.5306 88.1418 29.1794 85.3662 26.4404Z" fill="white"/>
<path d="M111.295 30.1289V0.511292H116.116V11.6864C117.285 9.78734 119.732 8.39958 122.653 8.39958C124.881 8.39958 126.743 9.1665 128.314 10.7003C129.884 12.2342 130.651 14.3523 130.651 17.2009V30.0924H125.721V18.5521C125.721 15.0097 123.931 13.0011 121.192 13.0011C118.271 13.0011 116.226 15.3018 116.226 18.6251V30.0924H111.295V30.1289Z" fill="white"/>
<path d="M151.248 8.94733H155.959V30.0923H151.248V27.4994C149.458 29.5811 147.231 30.6036 144.528 30.6036C141.57 30.6036 139.123 29.5445 137.188 27.3899C135.252 25.2352 134.303 22.5692 134.303 19.392C134.303 16.2513 135.252 13.5854 137.188 11.5037C139.123 9.42209 141.607 8.39954 144.528 8.39954C147.158 8.39954 149.385 9.45861 151.248 11.5768V8.94733ZM149.678 14.9366C148.545 13.6949 147.085 13.0741 145.295 13.0741C143.506 13.0741 142.081 13.6949 140.913 14.9366C139.817 16.1783 139.233 17.7121 139.233 19.5016C139.233 21.3276 139.817 22.8614 140.913 24.1031C142.045 25.3448 143.506 25.9656 145.295 25.9656C147.085 25.9656 148.509 25.3448 149.678 24.1031C150.81 22.8614 151.394 21.3276 151.394 19.5016C151.394 17.7121 150.81 16.2148 149.678 14.9366Z" fill="white"/>
<path d="M161.035 30.1289V8.98389H165.783V11.9055C167.025 9.60473 168.96 8.4361 171.517 8.4361C172.393 8.4361 173.233 8.58217 174 8.87433L173.598 13.7315C172.758 13.4758 171.955 13.2932 171.224 13.2932C168.157 13.2932 166.039 15.4114 166.039 19.7938V30.1289H161.035Z" fill="white"/>
<rect x="4.18262" y="37.2502" width="162.879" height="7.66917" fill="#EC008C"/>
</g>
<defs>
<filter id="filter0_d_12_4171" x="0" y="0" width="178" height="52.9194" filterUnits="userSpaceOnUse" color-interpolation-filters="sRGB">
<feFlood flood-opacity="0" result="BackgroundImageFix"/>
<feColorMatrix in="SourceAlpha" type="matrix" values="0 0 0 0 0 0 0 0 0 0 0 0 0 0 0 0 0 0 127 0" result="hardAlpha"/>
<feOffset dy="4"/>
<feGaussianBlur stdDeviation="2"/>
<feComposite in2="hardAlpha" operator="out"/>
<feColorMatrix type="matrix" values="0 0 0 0 0 0 0 0 0 0 0 0 0 0 0 0 0 0 0.25 0"/>
<feBlend mode="normal" in2="BackgroundImageFix" result="effect1_dropShadow_12_4171"/>
<feBlend mode="normal" in="SourceGraphic" in2="effect1_dropShadow_12_4171" result="shape"/>
</filter>
</defs>
</svg>
